<svg width="80" height="80" viewBox="0 0 80 80" fill="none" xmlns="http://www.w3.org/2000/svg">
<rect width="80" height="80" fill="black"/>
<path d="M49.5197 53.023C49.1941 53.023 49.0312 52.8602 49.0312 52.5346V27.4673C49.0312 27.1417 49.1941 26.9789 49.5197 26.9789H60.6173C60.9299 26.9789 61.1904 27.0831 61.3988 27.2915L65.3064 31.1991C65.5278 31.4205 65.6385 31.681 65.6385 31.9806V52.5346C65.6385 52.8602 65.4757 53.023 65.1501 53.023H59.6208C59.2952 53.023 59.1324 52.8602 59.1324 52.5346V32.176H55.5374V52.5346C55.5374 52.8602 55.3746 53.023 55.0489 53.023H49.5197Z" fill="white"/>
<path d="M34.8795 53.023C34.6059 53.023 34.4105 52.9123 34.2933 52.6909L31.8511 48.5684C31.7078 48.3339 31.6817 48.106 31.7729 47.8845L38.3963 32.3128L38.2204 32.9575V31.8243L38.4158 32.176H32.5349C32.2093 32.176 32.0464 32.0132 32.0464 31.6875V27.4673C32.0464 27.1417 32.2093 26.9789 32.5349 26.9789H42.0108C42.2713 26.9789 42.4667 27.0766 42.597 27.272L45.3909 31.1991C45.5472 31.3945 45.5667 31.6224 45.4495 31.8829L38.748 47.5915L38.9043 46.4778V48.3339L38.5917 47.8064H44.7461C45.0718 47.8064 45.2346 47.9692 45.2346 48.2948V52.5346C45.2346 52.8602 45.0718 53.023 44.7461 53.023H34.8795Z" fill="white"/>
<path d="M14.4884 53.023C14.1628 53.023 14 52.8602 14 52.5346V48.627C14 48.3013 14.1628 48.1385 14.4884 48.1385H23.2024V42.6093H14.4884C14.1628 42.6093 14 42.4465 14 42.1208L14.0195 27.4673C14.0195 27.1417 14.1824 26.9789 14.508 26.9789H29.2396C29.5653 26.9789 29.7281 27.1417 29.7281 27.4673V31.3749C29.7281 31.7006 29.5653 31.8634 29.2396 31.8634H20.5452V37.3926H29.2396C29.5653 37.3926 29.7281 37.5554 29.7281 37.8811V48.0408C29.7281 48.2753 29.6499 48.4837 29.4936 48.666L25.3516 52.7886C25.2083 52.9449 25.0064 53.023 24.7459 53.023H14.4884Z" fill="white"/>
</svg>
