<svg width="58" height="34" viewBox="0 0 58 34" fill="none" xmlns="http://www.w3.org/2000/svg">
<path d="M38.5197 30.023C38.1941 30.023 38.0312 29.8602 38.0312 29.5346V4.46733C38.0312 4.1417 38.1941 3.97888 38.5197 3.97888H49.6173C49.9299 3.97888 50.1904 4.08308 50.3988 4.29149L54.3064 8.19908C54.5278 8.42052 54.6385 8.68102 54.6385 8.98061V29.5346C54.6385 29.8602 54.4757 30.023 54.1501 30.023H48.6208C48.2952 30.023 48.1324 29.8602 48.1324 29.5346V9.17598H44.5374V29.5346C44.5374 29.8602 44.3746 30.023 44.0489 30.023H38.5197Z" fill="white"/>
<path d="M23.8795 30.023C23.6059 30.023 23.4105 29.9123 23.2933 29.6909L20.8511 25.5684C20.7078 25.3339 20.6817 25.106 20.7729 24.8845L27.3963 9.31275L27.2204 9.9575V8.8243L27.4158 9.17598H21.5349C21.2093 9.17598 21.0464 9.01317 21.0464 8.68754V4.46733C21.0464 4.1417 21.2093 3.97888 21.5349 3.97888H31.0108C31.2713 3.97888 31.4667 4.07657 31.597 4.27195L34.3909 8.19908C34.5472 8.39447 34.5667 8.62241 34.4495 8.88292L27.748 24.5915L27.9043 23.4778V25.3339L27.5917 24.8064H33.7461C34.0718 24.8064 34.2346 24.9692 34.2346 25.2948V29.5346C34.2346 29.8602 34.0718 30.023 33.7461 30.023H23.8795Z" fill="white"/>
<path d="M3.48845 30.023C3.16282 30.023 3 29.8602 3 29.5346V25.627C3 25.3013 3.16282 25.1385 3.48845 25.1385H12.2024V19.6093H3.48845C3.16282 19.6093 3 19.4465 3 19.1208L3.01954 4.46733C3.01954 4.1417 3.18235 3.97888 3.50799 3.97888H18.2396C18.5653 3.97888 18.7281 4.1417 18.7281 4.46733V8.37493C18.7281 8.70056 18.5653 8.86338 18.2396 8.86338H9.54522V14.3926H18.2396C18.5653 14.3926 18.7281 14.5554 18.7281 14.8811V25.0408C18.7281 25.2753 18.6499 25.4837 18.4936 25.666L14.3516 29.7886C14.2083 29.9449 14.0064 30.023 13.7459 30.023H3.48845Z" fill="white"/>
</svg>
