<svg width="58" height="34" viewBox="0 0 58 34" fill="none" xmlns="http://www.w3.org/2000/svg">
<path d="M49.8605 20.1507C49.3524 20.1507 48.9532 20.0277 48.6628 19.7816C48.3846 19.5355 48.2152 19.1957 48.1547 18.7621C48.0942 18.3169 48.1426 17.8188 48.2999 17.2681L49.2254 14.0866C49.4552 13.2898 49.4794 12.6863 49.298 12.2761C49.1165 11.8543 48.7414 11.6434 48.1728 11.6434C47.7252 11.6434 47.3078 11.7723 46.9207 12.0301C46.5335 12.2879 46.1766 12.6746 45.85 13.1902L45.8318 12.7507C46.2432 12.0359 46.709 11.5027 47.2292 11.1512C47.7615 10.7997 48.3483 10.6239 48.9895 10.6239C49.8726 10.6239 50.4957 10.9403 50.8586 11.5731C51.2216 12.1941 51.2518 13.0261 50.9494 14.069L49.9331 17.5317C49.7879 18.0356 49.7637 18.434 49.8605 18.727C49.9573 19.0082 50.169 19.1488 50.4957 19.1488C50.7618 19.1488 51.0159 19.0434 51.2579 18.8325C51.4998 18.6215 51.7236 18.3227 51.9293 17.936L52.2923 17.3032H53L52.5826 18.0591C52.3527 18.4692 52.1047 18.8325 51.8386 19.1488C51.5845 19.4652 51.2942 19.7113 50.9675 19.8871C50.653 20.0629 50.284 20.1507 49.8605 20.1507ZM42.3476 19.9047L44.2893 13.2253C44.4224 12.7449 44.4405 12.3582 44.3438 12.0652C44.2591 11.7723 44.0534 11.6258 43.7268 11.6258C43.4606 11.6258 43.2065 11.7312 42.9646 11.9422C42.7226 12.1414 42.4927 12.4343 42.275 12.821L41.9302 13.4714H41.2224L41.6398 12.7156C41.8697 12.2937 42.1117 11.9305 42.3657 11.6258C42.6319 11.3094 42.9283 11.0633 43.2549 10.8875C43.5816 10.7118 43.9445 10.6239 44.3438 10.6239C44.864 10.6239 45.2632 10.7469 45.5415 10.993C45.8318 11.2391 46.0073 11.5789 46.0678 12.0125C46.1282 12.4461 46.0799 12.9441 45.9226 13.5065L44.0534 19.9047H42.3476Z" fill="white"/>
<path d="M31.7577 20.1507L31.2677 19.764L38.1273 12.5574L38.3995 12.7507C37.9519 12.6921 37.4861 12.6394 37.0022 12.5925C36.5304 12.5339 36.0888 12.4871 35.6775 12.4519C35.2661 12.405 34.9274 12.3816 34.6612 12.3816C34.3467 12.3816 34.0865 12.4168 33.8809 12.4871C33.6752 12.5457 33.4937 12.6628 33.3365 12.8386C33.1913 13.0027 33.034 13.2429 32.8646 13.5593H32.1569L32.7739 12.3816C33.1126 11.7371 33.4393 11.286 33.7538 11.0282C34.0684 10.7586 34.4374 10.6239 34.8608 10.6239C35.1028 10.6239 35.3327 10.6708 35.5504 10.7645C35.7682 10.8582 35.9739 10.9754 36.1674 11.116C36.361 11.2567 36.5485 11.4031 36.73 11.5555C36.9236 11.6961 37.1111 11.8133 37.2926 11.907C37.4861 12.0008 37.6979 12.0476 37.9277 12.0476C38.0366 12.0476 38.1455 12.0359 38.2544 12.0125C38.3632 11.9773 38.4903 11.9129 38.6355 11.8191C38.7806 11.7137 38.9621 11.5672 39.1799 11.3797C39.3976 11.1805 39.6638 10.9286 39.9784 10.6239L40.4683 11.0106L33.6087 18.1997L33.3365 18.0239C33.8083 18.0708 34.2862 18.1235 34.7701 18.1821C35.2661 18.2407 35.7198 18.2876 36.1311 18.3227C36.5546 18.3579 36.8933 18.3754 37.1474 18.3754C37.4619 18.3754 37.716 18.3461 37.9096 18.2876C38.1152 18.2172 38.2967 18.1001 38.454 17.936C38.6113 17.772 38.7746 17.5317 38.944 17.2153H39.6517L39.0347 18.3754C38.6959 19.0199 38.3632 19.477 38.0366 19.7465C37.722 20.016 37.3531 20.1507 36.9296 20.1507C36.6756 20.1507 36.4396 20.1039 36.2219 20.0101C36.0041 19.9164 35.7984 19.7992 35.6049 19.6586C35.4113 19.518 35.2177 19.3773 35.0242 19.2367C34.8427 19.0844 34.6552 18.9614 34.4616 18.8676C34.268 18.7621 34.0563 18.7094 33.8264 18.7094C33.7055 18.7094 33.5905 18.727 33.4816 18.7621C33.3728 18.7973 33.2457 18.8676 33.1005 18.9731C32.9554 19.0668 32.7739 19.2074 32.5561 19.3949C32.3505 19.5824 32.0843 19.8344 31.7577 20.1507Z" fill="white"/>
<path d="M12.6351 28C12.5676 28 12.4832 27.9837 12.382 27.951C12.3145 27.9183 12.247 27.9019 12.1795 27.9019C12.1119 27.9019 12.0613 27.9019 12.0276 27.9019C11.9938 27.9346 11.9432 27.951 11.8757 27.951H9.7998C9.76605 27.951 9.66479 27.9346 9.49602 27.9019C9.361 27.8692 9.24286 27.8529 9.1416 27.8529C9.00659 27.8202 8.87157 27.7548 8.73656 27.6567C8.60154 27.5913 8.50028 27.5586 8.43277 27.5586C8.39902 27.5586 8.34839 27.5586 8.28088 27.5586C8.24712 27.5913 8.19649 27.6077 8.12899 27.6077C8.06148 27.6077 7.99397 27.575 7.92646 27.5096C7.89271 27.4442 7.84208 27.4115 7.77457 27.4115C7.74082 27.4115 7.72394 27.4115 7.72394 27.4115C7.75769 27.4442 7.74082 27.4606 7.67331 27.4606C7.63955 27.4606 7.55517 27.4279 7.42015 27.3625C7.28514 27.2971 7.18388 27.248 7.11637 27.2153C7.08261 27.1827 7.03198 27.1336 6.96448 27.0682C6.89697 27.0355 6.84634 27.0028 6.81258 26.9701C6.77883 26.9048 6.76195 26.8394 6.76195 26.774C6.76195 26.7086 6.7282 26.6596 6.66069 26.6269C6.42441 26.4634 6.22189 26.3326 6.05312 26.2345C5.8506 26.1365 5.69871 25.973 5.59744 25.7441C5.56369 25.7114 5.54681 25.597 5.54681 25.4009C5.51306 25.3028 5.46243 25.2047 5.39492 25.1066C5.32741 25.0085 5.31054 24.8941 5.34429 24.7633C5.31054 24.6979 5.27678 24.5999 5.24303 24.4691C5.20927 24.3383 5.1924 24.2566 5.1924 24.2239C5.1924 24.1585 5.15864 24.0114 5.09114 23.7825C4.98987 23.5537 4.973 23.3575 5.0405 23.194C5.07426 23.1286 5.14177 22.9815 5.24303 22.7527C5.31054 22.5238 5.39492 22.3603 5.49618 22.2623L6.55943 21.2324C6.62694 21.167 6.69445 21.118 6.76195 21.0853C6.86321 21.0199 6.9476 20.9709 7.01511 20.9382C7.08262 20.9055 7.15012 20.791 7.21763 20.5949C7.3864 20.5295 7.57205 20.4151 7.77457 20.2516C7.97709 20.0881 8.14586 19.941 8.28088 19.8102C8.34839 19.7448 8.46652 19.6631 8.63529 19.565C8.83782 19.4669 8.95596 19.4179 8.98971 19.4179C9.05722 19.4179 9.07409 19.4343 9.04034 19.467C9.04034 19.467 9.05722 19.4833 9.09097 19.516L9.59728 19.0746C9.63103 19.0746 9.68166 19.0746 9.74917 19.0746C9.85043 19.0746 9.91794 19.0583 9.9517 19.0256C9.98545 18.9929 10.0192 18.9439 10.053 18.8785C10.1205 18.8131 10.1542 18.764 10.1542 18.7313C10.4243 18.666 10.7449 18.6169 11.1162 18.5842C11.4875 18.5188 11.7744 18.4208 11.9769 18.29C12.0107 18.29 12.0276 18.29 12.0276 18.29C12.0276 18.2573 12.0444 18.2409 12.0782 18.2409C12.1457 18.2409 12.1626 18.2573 12.1288 18.29C12.1288 18.29 12.1626 18.29 12.2301 18.29C12.2976 18.29 12.4664 18.2246 12.7364 18.0938C13.0402 17.9303 13.2765 17.7996 13.4452 17.7015H13.5465C13.749 17.7015 13.9515 17.6525 14.1541 17.5544C14.3903 17.4236 14.576 17.3582 14.711 17.3582C14.7785 17.3582 14.8123 17.3746 14.8123 17.4072C14.8123 17.4399 14.846 17.4563 14.9135 17.4563C14.981 17.4563 15.0654 17.4399 15.1667 17.4072C15.2679 17.3419 15.3692 17.2928 15.4705 17.2601C15.538 17.2601 15.6561 17.2438 15.8249 17.2111C16.0274 17.1784 16.1455 17.162 16.1793 17.162L17.3944 17.2111C17.4619 17.2111 17.5294 17.2438 17.597 17.3092V17.5544C17.4619 17.5871 17.3607 17.5871 17.2932 17.5544C17.2594 17.5217 17.2257 17.5053 17.1919 17.5053C17.1244 17.5053 17.0231 17.5707 16.8881 17.7015C16.7531 17.7996 16.6518 17.8486 16.5843 17.8486H16.2805C16.078 17.8486 15.943 17.8159 15.8755 17.7505C15.8417 17.7832 15.8249 17.8323 15.8249 17.8977C15.7574 17.8977 15.7067 17.8813 15.673 17.8486L15.5717 17.9467L15.4705 17.8486C15.4367 17.9467 15.3186 18.0121 15.116 18.0448C14.9135 18.0448 14.7616 18.0611 14.6604 18.0938C14.6604 18.0938 14.6266 18.1102 14.5591 18.1429C14.5253 18.1756 14.4747 18.1919 14.4072 18.1919C14.3735 18.1919 14.2553 18.2082 14.0528 18.2409C13.8503 18.2409 13.6646 18.29 13.4959 18.3881C13.3946 18.4208 13.2765 18.5025 13.1414 18.6333C13.0402 18.764 12.9558 18.8294 12.8883 18.8294C12.8208 18.8294 12.7701 18.8294 12.7364 18.8294C12.7364 18.7967 12.7026 18.7804 12.6351 18.7804C12.5001 18.7804 12.3482 18.8621 12.1795 19.0256C12.1795 19.1564 12.1288 19.2708 12.0276 19.3689C11.9263 19.4343 11.8419 19.467 11.7744 19.467C11.4706 19.467 11.2512 19.5487 11.1162 19.7122C11.0149 19.8429 10.8293 19.892 10.5593 19.8593C10.4918 20.2189 10.3061 20.4478 10.0023 20.5458C9.83356 20.5458 9.71542 20.5785 9.64791 20.6439C9.51289 20.6766 9.37788 20.7747 9.24286 20.9382C9.10785 21.1016 8.95596 21.1834 8.78719 21.1834C8.68592 21.1834 8.61842 21.167 8.58466 21.1343C8.55091 21.1997 8.51716 21.2978 8.4834 21.4286C8.4834 21.5267 8.46652 21.6411 8.43277 21.7719L8.17962 21.919C7.97709 22.0497 7.75769 22.2786 7.52142 22.6055C7.31889 22.8998 7.18388 23.0469 7.11637 23.0469H6.86321C6.86321 23.1123 6.86321 23.194 6.86321 23.2921C6.86321 23.3902 6.82946 23.4719 6.76195 23.5373C6.62694 23.6354 6.52568 23.7498 6.45817 23.8806C6.39066 24.0441 6.35691 24.1912 6.35691 24.322C6.39066 24.3547 6.42441 24.4037 6.45817 24.4691C6.49192 24.5345 6.5088 24.5999 6.5088 24.6652C6.47505 24.7306 6.44129 24.8124 6.40754 24.9104C6.34003 25.0085 6.30628 25.0903 6.30628 25.1557C6.30628 25.1883 6.35691 25.3191 6.45817 25.548C6.52568 25.7768 6.61006 25.8913 6.71132 25.8913C6.77883 25.8913 6.81258 25.8749 6.81258 25.8422C6.84634 25.8422 6.88009 25.8422 6.91385 25.8422V25.8913C6.91385 25.9893 6.98135 26.0874 7.11637 26.1855C7.28514 26.3163 7.42015 26.3817 7.52142 26.3817C7.52142 26.4144 7.50454 26.4471 7.47078 26.4797C7.53829 26.5124 7.6058 26.5124 7.67331 26.4797C7.74082 26.4797 7.79145 26.4961 7.8252 26.5288C7.85895 26.5288 7.87583 26.5451 7.87583 26.5778C7.90959 26.6105 7.94334 26.6269 7.97709 26.6269H8.07835C8.07835 26.5942 8.09523 26.5778 8.12899 26.5778C8.19649 26.5778 8.28088 26.6105 8.38214 26.6759C8.4834 26.774 8.55091 26.8394 8.58466 26.8721C8.65217 26.9048 8.78719 26.9538 8.98971 27.0192C9.19223 27.0846 9.31037 27.1173 9.34413 27.1173C9.41163 27.1173 9.46226 27.1009 9.49602 27.0682C9.52977 27.0355 9.5804 27.0192 9.64791 27.0192C9.71542 27.0192 9.71542 27.0355 9.64791 27.0682C9.61416 27.1009 9.63103 27.1173 9.69854 27.1173C9.76605 27.1173 9.7998 27.1009 9.7998 27.0682C9.83356 27.0355 9.86731 27.0192 9.90106 27.0192C9.96857 27.0192 10.0023 27.0355 10.0023 27.0682C10.0361 27.1009 10.0867 27.1173 10.1542 27.1173C10.2217 27.1173 10.2386 27.1009 10.2048 27.0682C10.2048 27.0682 10.2048 27.0519 10.2048 27.0192C10.6099 27.0519 11.0149 27.0519 11.42 27.0192C11.8588 26.9865 12.2976 26.9538 12.7364 26.9211C12.8039 26.9211 12.8545 26.8884 12.8883 26.823C12.922 26.7576 12.9727 26.7086 13.0402 26.6759L13.5465 26.6269C13.614 26.5942 13.6646 26.5942 13.6984 26.6269C13.7321 26.6923 13.7828 26.7413 13.8503 26.774L14.0022 26.5288C14.2047 26.4634 14.3735 26.4307 14.5085 26.4307C14.5422 26.398 14.5591 26.3653 14.5591 26.3326C14.5591 26.2999 14.5929 26.2836 14.6604 26.2836C14.7279 26.2836 14.7447 26.2836 14.711 26.2836C14.711 26.3163 14.7279 26.3326 14.7616 26.3326C14.8291 26.3326 14.8966 26.2999 14.9641 26.2345C15.0317 26.1692 15.0992 26.1365 15.1667 26.1365C15.2342 26.1365 15.2679 26.1528 15.2679 26.1855C15.2679 26.2182 15.2848 26.2345 15.3186 26.2345C15.3523 26.2345 15.4367 26.1855 15.5717 26.0874C15.7067 25.9893 15.8249 25.9403 15.9261 25.9403C15.9936 25.8749 16.0611 25.7932 16.1287 25.6951C16.2299 25.6297 16.3143 25.5643 16.3818 25.4989C16.4156 25.5316 16.4831 25.548 16.5843 25.548C16.6518 25.548 16.7194 25.5807 16.7869 25.6461C16.8206 25.6134 16.8375 25.5643 16.8375 25.4989C17.04 25.4662 17.2257 25.3682 17.3944 25.2047C17.5632 25.0739 17.6645 25.0085 17.6982 25.0085C17.7657 25.0085 17.7826 25.0085 17.7488 25.0085C17.7151 25.0412 17.732 25.0576 17.7995 25.0576C17.867 25.0576 17.9682 24.9595 18.1033 24.7633H18.2045C18.3733 24.7633 18.5083 24.6979 18.6096 24.5672C18.7446 24.4691 18.8627 24.3547 18.964 24.2239C18.964 24.2239 18.964 24.2402 18.964 24.2729C18.964 24.3056 18.9977 24.322 19.0652 24.322C19.1328 24.322 19.234 24.2729 19.369 24.1748C19.504 24.0768 19.5884 23.995 19.6222 23.9296C19.791 23.9296 19.9428 23.8642 20.0779 23.7335C20.1454 23.5046 20.2466 23.3902 20.3816 23.3902C20.4154 23.3902 20.4323 23.4065 20.4323 23.4392C20.4323 23.4719 20.4492 23.4883 20.4829 23.4883C20.5842 23.4883 20.7867 23.3575 21.0905 23.0959C21.3943 22.8017 21.5799 22.6546 21.6474 22.6546C21.7149 22.6546 21.7487 22.6709 21.7487 22.7036C21.7824 22.7036 21.8162 22.7036 21.8499 22.7036C21.9174 22.7036 22.0525 22.6055 22.255 22.4094C22.4575 22.1805 22.6263 22.0007 22.7613 21.8699C22.8288 21.8372 22.8963 21.8045 22.9638 21.7719C23.0651 21.7392 23.1663 21.6901 23.2676 21.6247C23.3351 21.592 23.3857 21.5267 23.4195 21.4286C23.4533 21.3305 23.487 21.2488 23.5208 21.1834C23.5883 21.118 23.6727 21.0853 23.7739 21.0853C23.8752 21.0199 23.9764 20.9218 24.0777 20.791C24.179 20.6276 24.1958 20.4968 24.1283 20.3987C24.2971 20.3006 24.4659 20.1862 24.6346 20.0554C24.8372 19.892 25.0059 19.7448 25.1409 19.6141C25.2422 19.516 25.3266 19.3852 25.3941 19.2217C25.4954 19.0583 25.5629 18.9765 25.5966 18.9765C25.6641 18.9765 25.681 18.9929 25.6473 19.0256C25.6473 19.0256 25.6641 19.0256 25.6979 19.0256C25.7654 19.0256 25.8329 18.9765 25.9004 18.8785C25.9679 18.7477 26.0185 18.6333 26.0523 18.5352C26.1198 18.4698 26.1536 18.339 26.1536 18.1429C26.2886 18.0775 26.373 17.9957 26.4067 17.8977C26.4405 17.7669 26.4742 17.6688 26.508 17.6034C26.8793 17.3746 27.1662 17.064 27.3687 16.6716C27.5712 16.2466 27.6219 15.8706 27.5206 15.5437C27.6219 15.4456 27.6894 15.3312 27.7231 15.2004C27.7231 14.9716 27.74 14.8408 27.7737 14.8081C27.8413 14.7427 27.875 14.6446 27.875 14.5139C27.875 14.3177 27.8413 14.2033 27.7737 14.1706C27.7062 14.1052 27.6387 13.9908 27.5712 13.8273C27.6387 13.6311 27.6725 13.4677 27.6725 13.3369C27.6725 13.3042 27.605 13.1898 27.47 12.9936C27.4362 12.9609 27.3856 12.9446 27.3181 12.9446C27.2168 12.8792 27.1324 12.8138 27.0649 12.7484C27.0312 12.6503 26.9805 12.5849 26.913 12.5522C26.6092 12.4215 26.2886 12.2416 25.951 12.0128C25.9173 11.9801 25.8498 11.9638 25.7485 11.9638C25.6473 11.9638 25.5629 11.9474 25.4954 11.9147C25.3603 11.882 25.2085 11.8493 25.0397 11.8166C24.9047 11.7839 24.8034 11.7676 24.7359 11.7676C24.6684 11.7676 24.584 11.7839 24.4827 11.8166C24.3815 11.8493 24.2971 11.8657 24.2296 11.8657C24.1621 11.8657 24.1115 11.8493 24.0777 11.8166C24.0439 11.7512 23.9933 11.7186 23.9258 11.7186H23.5208C23.4533 11.7186 23.4195 11.7349 23.4195 11.7676C23.4195 11.8003 23.3857 11.8166 23.3182 11.8166C23.2845 11.8166 23.2507 11.8003 23.217 11.7676C23.217 11.7349 23.1832 11.7186 23.1157 11.7186L20.2298 12.0128C20.1622 12.0455 20.061 12.0945 19.926 12.1599C19.8247 12.2253 19.7234 12.2743 19.6222 12.307C19.3859 12.3724 19.1496 12.4378 18.9134 12.5032C18.6771 12.5359 18.4408 12.6013 18.2045 12.6994L17.0906 13.3859C17.0569 13.4186 16.9894 13.5004 16.8881 13.6311C16.7869 13.7619 16.7025 13.8436 16.635 13.8763C16.5675 13.909 16.4831 13.9417 16.3818 13.9744C16.2806 13.9744 16.1962 14.0071 16.1287 14.0725C16.0949 14.1379 16.0443 14.236 15.9768 14.3667C15.9093 14.4975 15.8924 14.5956 15.9261 14.661C15.8249 14.7264 15.7067 14.8571 15.5717 15.0533C15.2004 15.0533 15.0485 15.1187 15.116 15.2495C15.2173 15.3802 15.1329 15.462 14.8629 15.4947H14.4578C14.4241 15.4947 14.4072 15.4783 14.4072 15.4456C14.441 15.4129 14.4241 15.3966 14.3566 15.3966C14.2891 15.3966 14.2553 15.4129 14.2553 15.4456C14.2553 15.4783 14.2216 15.4947 14.1541 15.4947C14.1203 15.4947 14.0865 15.4783 14.0528 15.4456C14.0528 15.3802 14.019 15.3475 13.9515 15.3475C13.9178 15.3475 13.9009 15.3639 13.9009 15.3966C13.9347 15.3966 13.9178 15.3966 13.8503 15.3966C13.7828 15.3966 13.7321 15.3149 13.6984 15.1514C13.6646 14.9552 13.6477 14.8408 13.6477 14.8081C13.6477 14.4485 13.7153 14.2196 13.8503 14.1215C14.019 13.9908 14.1372 13.7619 14.2047 13.435C14.3397 13.3042 14.4072 13.1734 14.4072 13.0426C14.5085 13.0426 14.576 13.059 14.6097 13.0917C14.7447 12.9936 14.7785 12.8955 14.711 12.7974C14.6772 12.6994 14.6772 12.634 14.711 12.6013L15.4705 11.9147L15.7742 12.1599C15.808 12.0945 15.8417 12.0291 15.8755 11.9638C15.9093 11.8984 15.9599 11.8657 16.0274 11.8657C16.0949 11.8657 16.1118 11.882 16.078 11.9147C16.078 11.9147 16.0949 11.9147 16.1287 11.9147C16.1624 11.9147 16.2974 11.7839 16.5337 11.5224C16.8037 11.2281 17.0231 10.9829 17.1919 10.7868V10.6397C17.2594 10.5743 17.3438 10.4925 17.4451 10.3945C17.5801 10.2637 17.6645 10.1983 17.6982 10.1983C17.7657 10.1656 17.7826 10.1656 17.7488 10.1983C17.7151 10.231 17.732 10.2473 17.7995 10.2473C17.867 10.2146 17.9176 10.1656 17.9514 10.1002C17.9851 10.0021 18.0189 9.93674 18.0526 9.90405C18.2552 9.74058 18.4239 9.6425 18.5589 9.60981C18.694 9.54442 18.7783 9.3973 18.8121 9.16844L18.9134 9.31556C18.9809 9.25018 19.0146 9.16844 19.0146 9.07036C19.0821 9.03767 19.1834 8.93959 19.3184 8.77612C19.4872 8.61265 19.5547 8.51457 19.5209 8.48188C19.6559 8.41649 19.8078 8.31841 19.9766 8.18763C20.1791 8.02416 20.3816 7.87704 20.5842 7.74627C20.6179 7.71358 20.6348 7.66453 20.6348 7.59915C20.6348 7.53376 20.6179 7.50107 20.5842 7.50107C20.5842 7.50107 20.5842 7.48472 20.5842 7.45203C20.5167 7.38664 20.4323 7.32125 20.331 7.25586C20.2635 7.19048 20.196 7.15778 20.1285 7.15778C20.0947 7.15778 19.9597 7.19048 19.7234 7.25586C19.4872 7.28856 19.2678 7.3376 19.0652 7.40298C19.0315 7.43568 18.9977 7.48472 18.964 7.55011C18.964 7.5828 18.9302 7.59915 18.8627 7.59915H18.5589C18.5252 7.56645 18.5083 7.53376 18.5083 7.50107C18.5083 7.46837 18.4746 7.45203 18.407 7.45203C18.3733 7.45203 18.2045 7.50107 17.9007 7.59915C17.597 7.69723 17.4113 7.74627 17.3438 7.74627C17.2763 7.74627 17.2425 7.74627 17.2425 7.74627C17.2425 7.71358 17.2088 7.69723 17.1413 7.69723C17.1075 7.69723 17.0231 7.72992 16.8881 7.79531C16.7531 7.8607 16.635 7.92608 16.5337 7.99147L16.4324 7.89339C16.2299 8.02416 16.0274 8.1059 15.8249 8.13859C15.6561 8.17129 15.5042 8.22033 15.3692 8.28571C15.3354 8.31841 15.3186 8.3511 15.3186 8.38379C15.3186 8.41649 15.2848 8.43283 15.2173 8.43283H15.1667C15.1667 8.40014 15.1498 8.38379 15.116 8.38379C15.0485 8.38379 14.9135 8.46553 14.711 8.629C14.5085 8.79247 14.3735 8.8742 14.3059 8.8742C14.2384 8.8742 14.2047 8.8742 14.2047 8.8742C14.2047 8.84151 14.1709 8.82516 14.1034 8.82516C13.9009 8.82516 13.5296 8.93959 12.9895 9.16844C12.922 9.20114 12.8545 9.25018 12.787 9.31556C12.7195 9.38095 12.6183 9.44634 12.4832 9.51173C12.4157 9.54442 12.3313 9.56077 12.2301 9.56077C12.1626 9.56077 12.1119 9.56077 12.0782 9.56077C11.9769 9.59346 11.8757 9.6425 11.7744 9.70789C11.7069 9.77328 11.6056 9.83866 11.4706 9.90405C11.4369 9.93674 11.3862 9.95309 11.3187 9.95309C11.2512 9.95309 11.1837 9.96944 11.1162 10.0021C11.0825 10.0348 11.0318 10.0839 10.9643 10.1493C10.9306 10.2146 10.8799 10.2473 10.8124 10.2473C10.7449 10.2473 10.728 10.2473 10.7618 10.2473C10.7955 10.2146 10.7787 10.1983 10.7112 10.1983C10.6437 10.1983 10.5424 10.2637 10.4074 10.3945C10.2724 10.4925 10.1711 10.5416 10.1036 10.5416C10.0698 10.5416 10.0361 10.4925 10.0023 10.3945C10.0023 10.2964 10.0023 10.2146 10.0023 10.1493C10.0023 10.1166 9.98545 10.0675 9.9517 10.0021C9.9517 9.93674 9.9517 9.87136 9.9517 9.80597C9.9517 9.74058 9.98545 9.60981 10.053 9.41365C10.0867 9.31557 10.2048 9.16844 10.4074 8.97228C10.6099 8.77612 10.7787 8.629 10.9137 8.53092C11.1837 8.36745 11.4875 8.23667 11.825 8.13859C12.1626 8.00782 12.3651 7.94243 12.4326 7.94243C12.5001 7.90974 12.5339 7.92608 12.5339 7.99147C12.5339 8.02416 12.5507 8.04051 12.5845 8.04051C12.652 8.00782 12.6858 7.99147 12.6858 7.99147C12.7195 7.95878 12.7533 7.94243 12.787 7.94243C12.9558 7.94243 13.0739 7.95878 13.1414 7.99147C13.2427 8.02416 13.2933 8.0732 13.2933 8.13859C13.2933 8.17129 13.3608 8.18763 13.4959 8.18763C13.7996 8.18763 14.0865 8.07321 14.3566 7.84435C14.6266 7.5828 14.8629 7.45203 15.0654 7.45203C15.1329 7.45203 15.2342 7.51741 15.3692 7.64819C15.4367 7.64819 15.5211 7.61549 15.6223 7.55011C15.7236 7.45203 15.8249 7.43568 15.9261 7.50107L15.9768 7.40298C16.1793 7.40298 16.3987 7.35394 16.635 7.25586C16.8712 7.15778 17.0063 7.10874 17.04 7.10874C17.1075 7.10874 17.1413 7.12509 17.1413 7.15778C17.175 7.15778 17.2088 7.15778 17.2425 7.15778C17.31 7.15778 17.3438 7.14144 17.3438 7.10874C17.3438 7.04335 17.3776 7.01066 17.4451 7.01066C17.5126 7.01066 17.5463 7.02701 17.5463 7.0597C17.5463 7.0597 17.5632 7.0597 17.597 7.0597C17.6645 7.0597 17.867 6.97797 18.2045 6.8145C18.5421 6.65103 18.829 6.5366 19.0652 6.47121C19.4365 6.37313 19.8078 6.32409 20.1791 6.32409C20.2129 6.32409 20.2466 6.30775 20.2804 6.27505C20.3141 6.24236 20.3648 6.22601 20.4323 6.22601H21.3436C21.7149 6.22601 21.9343 6.12793 22.0018 5.93177C22.1706 5.80099 22.3562 5.68657 22.5588 5.58848C22.7613 5.4904 22.9132 5.31059 23.0144 5.04904C23.082 5.04904 23.217 5.08173 23.4195 5.14712C23.4195 5.17981 23.4195 5.2452 23.4195 5.34328C23.4195 5.44136 23.4364 5.5231 23.4701 5.58848C23.4364 5.62118 23.3857 5.63753 23.3182 5.63753C23.2845 5.63753 23.2339 5.67022 23.1663 5.73561V5.93177C23.2339 5.96446 23.352 5.98081 23.5208 5.98081C23.5883 5.98081 23.6727 5.91542 23.7739 5.78465C23.9089 5.62118 23.9933 5.47406 24.0271 5.34328C24.0946 5.37598 24.1621 5.42502 24.2296 5.4904C24.3309 5.5231 24.4152 5.53945 24.4827 5.53945C24.5503 5.53945 24.6853 5.49041 24.8878 5.39233C25.1241 5.26155 25.3266 5.16347 25.4954 5.09808L25.951 5.53945L26.4067 5.44136C26.4742 5.40867 26.5249 5.37598 26.5586 5.34328C26.6261 5.2779 26.6767 5.22885 26.7105 5.19616C26.9805 5.16347 27.3012 5.13077 27.6725 5.09808C28.0438 5.03269 28.2632 5 28.3307 5C28.3982 5 28.432 5.01635 28.432 5.04904C28.4657 5.08173 28.4995 5.09808 28.5332 5.09808L29.5458 5C29.6133 5 29.6471 5.03269 29.6471 5.09808C29.6808 5.13077 29.7146 5.14712 29.7484 5.14712C29.8159 5.14712 29.8834 5.14712 29.9509 5.14712C30.0521 5.14712 30.1534 5.13077 30.2547 5.09808C30.2884 5.09808 30.3053 5.11443 30.3053 5.14712C30.339 5.14712 30.3728 5.14712 30.4066 5.14712C30.4741 5.14712 30.4909 5.13077 30.4572 5.09808C30.4572 5.06539 30.4572 5.03269 30.4572 5C30.5247 5.03269 30.6428 5.09808 30.8116 5.19616C31.0141 5.29424 31.1323 5.34328 31.166 5.34328C31.2335 5.34328 31.2673 5.32694 31.2673 5.29424C31.2673 5.26155 31.2842 5.2452 31.3179 5.2452C31.3854 5.2452 31.5036 5.31059 31.6723 5.44136C31.8748 5.57214 31.993 5.67022 32.0267 5.73561C32.128 5.83369 32.1786 5.96446 32.1786 6.12793L32.3812 6.27505C32.3812 6.34044 32.398 6.43852 32.4318 6.5693C32.4993 6.66738 32.533 6.74911 32.533 6.8145C32.533 6.87989 32.5162 6.92893 32.4824 6.96162C32.4824 6.99431 32.4824 7.02701 32.4824 7.0597V7.20682C32.4824 7.27221 32.4655 7.35394 32.4318 7.45203C32.4318 7.55011 32.4318 7.64819 32.4318 7.74627C32.3643 7.87704 32.2461 7.94243 32.0774 7.94243C32.0436 7.97512 32.0099 8.02416 31.9761 8.08955C31.9424 8.12224 31.8917 8.13859 31.8242 8.13859C31.7567 8.13859 31.7398 8.13859 31.7736 8.13859C31.8073 8.1059 31.7905 8.08955 31.723 8.08955C31.6892 8.08955 31.6217 8.17129 31.5204 8.33476C31.4529 8.46553 31.4023 8.57996 31.3685 8.67804C31.166 8.90689 30.9466 9.13575 30.7103 9.3646C30.4741 9.59346 30.2715 9.82232 30.1028 10.0512C30.0353 10.0839 29.9509 10.1329 29.8496 10.1983C29.7484 10.2637 29.6471 10.3291 29.5458 10.3945L29.2927 10.0512C29.4614 9.98578 29.5458 9.8877 29.5458 9.75693C29.5458 9.59346 29.5965 9.46269 29.6977 9.3646C29.7315 9.33191 29.799 9.31556 29.9002 9.31556L30.1028 9.07036C30.1365 9.00497 30.1365 8.92324 30.1028 8.82516C30.1028 8.69438 30.1028 8.5963 30.1028 8.53092C30.2378 8.49822 30.3053 8.3838 30.3053 8.18763C30.3053 7.99147 30.3053 7.84435 30.3053 7.74627C30.3053 7.68088 30.3222 7.63184 30.3559 7.59915C30.3897 7.56645 30.4066 7.51741 30.4066 7.45203C30.4066 7.38664 30.3728 7.32125 30.3053 7.25586V7.15778C30.3053 6.99431 30.2378 6.84719 30.1028 6.71642C30.0015 6.55295 29.8665 6.40583 29.6977 6.27505H29.4952C29.4277 6.27505 29.3264 6.2914 29.1914 6.32409C29.0564 6.35679 28.9383 6.38948 28.837 6.42217C28.7695 6.32409 28.6851 6.22601 28.5838 6.12793C28.4826 6.02985 28.3476 5.98081 28.1788 5.98081C28.145 5.98081 28.1113 5.99716 28.0775 6.02985C28.0438 6.06254 27.9931 6.07889 27.9256 6.07889C27.6894 6.07889 27.4193 6.09524 27.1155 6.12793C26.8118 6.12793 26.6261 6.12793 26.5586 6.12793C26.4911 6.16062 26.4405 6.16062 26.4067 6.12793C26.4067 6.06254 26.373 6.02985 26.3055 6.02985C26.2717 6.06254 26.2042 6.11159 26.1029 6.17697C26.0017 6.24236 25.9173 6.27505 25.8498 6.27505C25.7823 6.27505 25.7485 6.27505 25.7485 6.27505C25.7823 6.24236 25.7654 6.22601 25.6979 6.22601C25.6304 6.22601 25.4785 6.27505 25.2422 6.37313C25.0397 6.43852 24.9047 6.47121 24.8372 6.47121C24.8034 6.47121 24.7528 6.45487 24.6853 6.42217C24.6178 6.38948 24.5503 6.37313 24.4827 6.37313C24.449 6.37313 24.3309 6.40583 24.1283 6.47121C23.9596 6.50391 23.8077 6.5366 23.6727 6.5693C23.6389 6.60199 23.6051 6.63468 23.5714 6.66738C23.5714 6.70007 23.5376 6.71642 23.4701 6.71642L23.0651 6.66738C22.8963 6.66738 22.7275 6.73276 22.5588 6.86354C22.39 6.96162 22.2212 7.04335 22.0525 7.10874C22.0525 7.10874 22.0525 7.14144 22.0525 7.20682C22.0525 7.27221 22.0187 7.32125 21.9512 7.35394C21.2424 7.87704 20.6179 8.41649 20.0779 8.97228C19.5716 9.52807 19.099 10.0021 18.6602 10.3945V10.5906C18.6602 10.7214 18.5589 10.9176 18.3564 11.1791C18.1539 11.408 17.9851 11.5878 17.8501 11.7186L17.6982 12.1109V12.209C17.732 12.209 17.7488 12.2253 17.7488 12.258C17.7488 12.258 17.7826 12.258 17.8501 12.258C17.9176 12.258 17.9851 12.1926 18.0526 12.0618C18.1201 11.9964 18.2214 11.9638 18.3564 11.9638C18.4914 11.9638 18.5927 11.9638 18.6602 11.9638C18.7277 11.9638 18.7446 11.9801 18.7108 12.0128C18.7108 12.0128 18.7277 12.0128 18.7615 12.0128C18.829 12.0128 18.8796 11.9801 18.9134 11.9147C18.9809 11.8493 19.0315 11.8166 19.0652 11.8166C19.099 11.8166 19.1159 11.833 19.1159 11.8657H19.1665L19.3184 11.7676C19.3859 11.833 19.4365 11.8657 19.4703 11.8657C19.5378 11.8657 19.6222 11.833 19.7234 11.7676C19.8585 11.7022 19.9597 11.6532 20.0272 11.6205C20.3985 11.5551 20.8204 11.4897 21.293 11.4243C21.7993 11.3262 22.2381 11.2445 22.6094 11.1791C23.0145 11.1137 23.2339 11.081 23.2676 11.081H23.4701C23.5714 11.081 23.6727 11.0974 23.7739 11.1301C23.8752 11.1301 23.9933 11.1791 24.1283 11.2772C24.1958 11.2445 24.2465 11.2118 24.2802 11.1791C24.3477 11.1137 24.3984 11.081 24.4321 11.081H25.0397C25.2085 11.081 25.3603 11.081 25.4954 11.081C25.6304 11.081 25.7485 11.0974 25.8498 11.1301C25.951 11.1301 26.0692 11.1464 26.2042 11.1791C26.3392 11.2118 26.4573 11.2445 26.5586 11.2772C26.6261 11.3099 26.6936 11.3589 26.7611 11.4243C26.8624 11.4897 26.9637 11.5551 27.0649 11.6205C27.0987 11.6532 27.1662 11.6695 27.2674 11.6695C27.3687 11.6368 27.4531 11.6532 27.5206 11.7186C27.6219 11.7839 27.7231 11.8493 27.8244 11.9147C27.9594 11.9474 28.0607 11.9964 28.1282 12.0618C28.2969 12.1272 28.4151 12.2253 28.4826 12.3561C28.5838 12.4869 28.6851 12.6176 28.7864 12.7484C28.7864 12.8138 28.8708 12.8465 29.0395 12.8465V12.8955C29.0395 13.1244 29.1239 13.3532 29.2927 13.5821C29.4614 13.8109 29.5627 14.0235 29.5965 14.2196C29.664 14.3504 29.7146 14.5302 29.7484 14.7591C29.7821 14.9879 29.799 15.135 29.799 15.2004C29.799 15.2658 29.7821 15.3312 29.7484 15.3966C29.7146 15.4293 29.6977 15.4783 29.6977 15.5437C29.6977 15.9687 29.6302 16.3447 29.4952 16.6716C29.3939 16.9659 29.2927 17.2601 29.1914 17.5544C29.1239 17.6851 29.1239 17.8159 29.1914 17.9467C29.0564 18.0121 28.9551 18.1102 28.8876 18.2409C28.8539 18.3717 28.8032 18.4698 28.7357 18.5352L28.3307 19.1727C28.0607 19.5977 27.74 19.99 27.3687 20.3497L25.1916 22.3603C25.0566 22.4584 24.9215 22.5892 24.7865 22.7527C24.6853 22.8834 24.5671 22.9979 24.4321 23.0959C24.2971 23.194 24.1283 23.3412 23.9258 23.5373C23.7233 23.7008 23.5376 23.8316 23.3689 23.9296L21.9512 24.7633C21.8499 24.7633 21.7656 24.7797 21.698 24.8124C21.5293 24.9431 21.2761 25.123 20.9386 25.3518C20.6348 25.6134 20.4492 25.7441 20.3816 25.7441C20.3479 25.7441 20.331 25.7278 20.331 25.6951C20.3648 25.6951 20.3479 25.6951 20.2804 25.6951C20.2129 25.6951 19.9091 25.8259 19.369 26.0874C18.829 26.3817 18.407 26.6269 18.1033 26.823C18.002 26.823 17.8839 26.8557 17.7488 26.9211C17.6138 27.0192 17.5126 27.0682 17.4451 27.0682C17.3776 27.0682 17.3438 27.0519 17.3438 27.0192C17.3776 26.9865 17.3607 26.9701 17.2932 26.9701C17.2594 26.9701 17.175 27.0028 17.04 27.0682C16.905 27.1336 16.8037 27.1663 16.7362 27.1663C16.6687 27.1663 16.635 27.15 16.635 27.1173C16.6687 27.1173 16.6518 27.1173 16.5843 27.1173C16.5168 27.1173 16.3818 27.1663 16.1793 27.2644C15.9768 27.3625 15.8417 27.4115 15.7742 27.4115C15.5717 27.4115 15.2679 27.4769 14.8629 27.6077C14.8291 27.6077 14.7954 27.624 14.7616 27.6567C14.7616 27.6894 14.7279 27.7058 14.6604 27.7058C14.5929 27.7058 14.4241 27.7221 14.1541 27.7548C13.9178 27.7875 13.6815 27.8038 13.4452 27.8038C13.1077 27.9346 12.8377 28 12.6351 28Z" fill="white"/>
</svg>
