<svg width="72" height="72" viewBox="0 0 72 72" fill="none" xmlns="http://www.w3.org/2000/svg">
<path d="M58.2778 52.9705C56.0315 55.9704 52.2211 59.7037 48.1167 62.1775C44.1138 64.59 39.2711 66.1214 35.4009 63.6042C34.0928 62.7534 33.2306 61.5055 32.8989 59.9373C32.5759 58.4096 32.7699 56.6562 33.3901 54.7429L35.9204 55.5632C35.3875 57.2072 35.3064 58.4652 35.5015 59.3875C35.688 60.2691 36.1382 60.9111 36.8511 61.3748C39.323 62.9824 42.8671 62.2355 46.7437 59.8992C50.5184 57.6241 54.0806 54.1374 56.1479 51.3767L58.2778 52.9705ZM37.1177 17.238C27.4433 17.6568 20.3132 20.9956 16.9946 24.5876C15.3339 26.3854 14.7619 28.0826 14.9839 29.4363C15.199 30.7478 16.2361 32.1781 18.8042 33.3044C27.2609 37.0134 37.0985 36.8306 39.4448 36.7869C39.69 36.7823 39.854 36.7789 39.9253 36.782L39.8101 39.4392C39.819 39.4396 39.8172 39.4399 39.7964 39.4402C39.7752 39.4405 39.7343 39.4407 39.6646 39.4421C39.5542 39.4445 39.3882 39.4491 39.1958 39.4529C38.8034 39.4605 38.2625 39.4674 37.5991 39.4636C36.2724 39.4561 34.456 39.4033 32.3501 39.2166C30.899 39.0878 29.3023 38.8924 27.6274 38.6042L21.061 46.7869L36.1812 40.7576L37.1665 43.2283L32.1948 45.2107C31.6965 46.3399 31.0173 47.4444 30.4546 48.2791C30.1213 48.7733 29.8175 49.1905 29.5962 49.4851C29.4855 49.6325 29.3953 49.7501 29.3315 49.8318C29.2998 49.8724 29.2741 49.9042 29.2563 49.9265C29.2475 49.9377 29.2399 49.9466 29.2349 49.9529L29.229 49.9607L29.2271 49.9636L29.2261 49.9646L27.1558 48.2947L27.1587 48.2908C27.1616 48.2871 27.1666 48.2807 27.1733 48.2722C27.1868 48.2553 27.2077 48.2289 27.2349 48.1941C27.2893 48.1244 27.3695 48.0202 27.4692 47.8875C27.6693 47.621 27.9465 47.2411 28.2495 46.7917C28.2518 46.7884 28.2531 46.7844 28.2554 46.781L17.1187 51.2234L15.8589 49.0193L24.6929 38.0115C23.4823 37.7287 22.2531 37.3909 21.0269 36.989C13.3292 40.5241 8.13816 46.0281 5.55713 51.03C4.24994 53.5634 3.64591 55.9002 3.6626 57.7419C3.6793 59.5796 4.2962 60.7594 5.24756 61.3699C6.45056 62.1417 7.9272 62.3615 9.63525 62.1033C11.3547 61.8433 13.2297 61.1077 15.0991 60.075C18.8473 58.0042 22.3061 54.8875 24.0542 52.7107L26.1284 54.3767C24.1673 56.8188 20.442 60.1619 16.3853 62.4031C14.3523 63.5262 12.1698 64.4101 10.0327 64.7332C7.88441 65.0579 5.70545 64.8245 3.81104 63.6091C1.86 62.3572 1.02516 60.1651 1.00342 57.7654C0.981811 55.3699 1.75244 52.6027 3.19385 49.8093C5.78421 44.7896 10.6515 39.465 17.6499 35.7C14.6399 34.3575 12.7663 32.3506 12.3589 29.8669C11.9546 27.4017 13.0718 24.9141 15.0405 22.783C18.9811 18.5173 26.8751 15.0192 37.0024 14.5808L37.1177 17.238ZM49.0708 41.8601C48.1051 43.2042 45.7879 45.6098 42.647 47.9128C41.2885 48.9089 39.756 49.8999 38.0903 50.7849C39.7369 50.9876 41.3851 51.3383 42.7124 51.8923L41.688 54.3464C40.1969 53.7241 37.9823 53.3719 35.8149 53.2556C33.858 53.1506 32.1419 53.2479 31.2241 53.4236C31.1112 53.45 30.9977 53.4759 30.8843 53.5007L30.2603 50.9158C30.3809 50.8839 30.5117 50.8537 30.6509 50.8259C34.5645 49.9023 38.1858 47.8849 41.0737 45.7673C44.0548 43.5815 46.15 41.3661 46.9106 40.3074L49.0708 41.8601ZM60.2593 29.238C62.8435 28.8709 64.9789 28.9376 66.6548 29.3582C68.3229 29.7768 69.6437 30.578 70.3862 31.7625C71.1519 32.9842 71.1654 34.3965 70.6226 35.6853C70.0922 36.9444 69.0421 38.088 67.6392 39.0095L66.1782 36.7859C67.2724 36.0672 67.8997 35.2978 68.1714 34.6531C68.4305 34.0379 68.3703 33.5552 68.1323 33.1755C67.8712 32.7589 67.2583 32.2522 66.0073 31.9382C64.8673 31.6522 63.285 31.5528 61.2104 31.7966L59.978 33.6101C61.342 34.0462 62.4828 34.8886 63.2769 36.1697C65.2606 39.37 64.4112 44.4047 60.6899 50.0544L58.4692 48.5916C62.0481 43.1581 62.1376 39.3804 61.0161 37.571C60.5227 36.775 59.6395 36.1623 58.3755 35.9695L49.7446 48.6804L47.5444 47.1863L54.9067 36.3425C54.3532 36.5152 53.765 36.7418 53.1431 37.031L52.021 34.6199C53.7368 33.822 55.4312 33.365 56.9917 33.2732L59.6763 29.3201L60.2593 29.238ZM29.9624 26.9382C31.9975 27.1179 36.5129 27.8321 40.731 29.3035C42.8392 30.0389 44.9391 30.9856 46.6284 32.1941C48.3067 33.3947 49.7192 34.9549 50.1763 36.9509L47.5825 37.5447C47.3294 36.4397 46.4946 35.3687 45.0806 34.3572C43.6775 33.3536 41.8387 32.5065 39.854 31.8142C35.8856 30.43 31.5942 29.7523 29.729 29.5876L29.9624 26.9382ZM39.1724 19.406C39.2014 19.4494 39.2519 19.5228 39.3267 19.6208C39.4761 19.8169 39.7215 20.1127 40.0796 20.4705C40.7948 21.1848 41.9658 22.1512 43.7368 23.0652C47.2684 24.8877 53.2778 26.5484 62.9771 25.4646L63.2729 28.1082C53.1408 29.2403 46.5886 27.5306 42.5171 25.4294C40.487 24.3818 39.0962 23.2477 38.1997 22.3523C37.752 21.9051 37.4288 21.5182 37.2114 21.2332C37.103 21.0909 37.0205 20.9741 36.9624 20.8875C36.9333 20.8441 36.9104 20.8076 36.8931 20.78C36.8846 20.7666 36.8773 20.7553 36.8716 20.7458C36.8687 20.7411 36.866 20.7359 36.8638 20.7322L36.8599 20.7273L36.8589 20.7253L39.146 19.3679L39.1724 19.406ZM57.5688 17.6335C56.4277 19.1224 53.1204 22.0996 48.6353 22.4236L48.4429 19.7703C51.9181 19.5193 54.6002 17.1352 55.4585 16.0154L57.5688 17.6335ZM45.9692 9.04565C48.5807 7.61671 51.8223 6.53355 55.1782 6.99194C58.4974 7.44545 60.5338 9.05549 61.1812 11.2986C61.1832 11.3056 61.184 11.313 61.186 11.3201C62.3099 11.5292 63.5021 11.8186 64.7612 12.2087L63.9741 14.7498C63.0298 14.4571 62.1288 14.2264 61.272 14.0476C61.034 15.2399 60.4658 16.3641 59.7163 17.2634L57.6724 15.5603C58.1607 14.9743 58.4881 14.3012 58.6382 13.6384C54.0389 13.1758 51.0211 14.24 49.5454 14.7605C49.5129 14.7719 49.4807 14.7828 49.4497 14.7937L48.5669 12.2849C48.5855 12.2784 48.6045 12.2711 48.6235 12.2644C50.1687 11.7202 53.2944 10.6207 57.9478 10.9138C57.3763 10.3449 56.4132 9.84556 54.8188 9.62769C52.2413 9.27552 49.59 10.0973 47.2466 11.3796C44.9113 12.6575 43.0178 14.3192 42.0161 15.4255L40.0444 13.6404C41.2267 12.3345 43.3499 10.4789 45.9692 9.04565Z" fill="white"/>
</svg>
